<svg xmlns="http://www.w3.org/2000/svg" width="880" height="240" viewBox="0 0 880 240"><rect width="880" height="240" fill="#15232e"/><g fill="none" stroke="#496574"><path d="M45 50H835M45 120H835M45 190H835"/><path d="M120 30V210M280 30V210M440 30V210M600 30V210M760 30V210" stroke-dasharray="2 8"/></g><g fill="none" stroke="#83b9d8" stroke-width="2"><path d="M80 65H245L380 120H440"/><circle cx="380" cy="120" r="7" fill="#15232e"/></g><g fill="none" stroke="#c34736" stroke-width="2"><path d="M80 120H245L505 120H710"/><path d="M490 99h-7v42h7m30-42h7v42h-7"/><circle cx="505" cy="120" r="7" fill="#15232e"/></g><g fill="none" stroke="#b3dbd5" stroke-width="2"><path d="M80 175H245L430 120H440"/><path d="M440 35V205" stroke-dasharray="4 4"/></g><g fill="#c8d9e0" font-family="monospace" font-size="11"><text x="30" y="25">OBSERVATIONS</text><text x="338" y="25">LABELED COMPARISON PLANE</text><text x="660" y="105">RETAIN THE OFFSET</text><text x="30" y="225">CONCEPT DIAGRAM / NO MARKET MEASUREMENTS</text><text x="655" y="225">MIRRORGAP [ 01 ]</text></g></svg>
